<svg xmlns="http://www.w3.org/2000/svg" xmlns:xlink="http://www.w3.org/1999/xlink" viewBox="0 0 92.11 94.23"><defs><style>.cls-1{isolation:isolate;}.cls-2{fill:url(#radial-gradient);}.cls-11,.cls-13,.cls-15,.cls-17,.cls-19,.cls-3,.cls-4,.cls-5,.cls-7,.cls-9{mix-blend-mode:overlay;}.cls-3{fill:url(#radial-gradient-2);}.cls-4{opacity:0.4;fill:url(#radial-gradient-3);}.cls-5{opacity:0.2;fill:url(#Degradado_sin_nombre_34);}.cls-6{fill:url(#radial-gradient-4);}.cls-7{fill:url(#radial-gradient-5);}.cls-8{fill:url(#radial-gradient-6);}.cls-9{fill:url(#radial-gradient-7);}.cls-10{fill:url(#radial-gradient-8);}.cls-11{fill:url(#radial-gradient-9);}.cls-12{fill:url(#radial-gradient-10);}.cls-13{fill:url(#radial-gradient-11);}.cls-14{fill:url(#radial-gradient-12);}.cls-15{fill:url(#radial-gradient-13);}.cls-16{fill:url(#radial-gradient-14);}.cls-17{fill:url(#radial-gradient-15);}.cls-18{fill:url(#radial-gradient-16);}.cls-19{fill:url(#radial-gradient-17);}</style><radialGradient id="radial-gradient" cx="57.67" cy="13.78" r="70.26" gradientTransform="translate(115.34 23.84) rotate(180) scale(1 0.73)" gradientUnits="userSpaceOnUse"><stop offset="0" stop-color="#fff"/><stop offset="0.2" stop-color="#d5f3ff"/><stop offset="1" stop-color="#85bcf1"/></radialGradient><radialGradient id="radial-gradient-2" cx="1248.76" cy="-1737.92" r="8.48" gradientTransform="matrix(-0.84, 1.15, -1.62, -1.31, -1711.87, -3703.9)" gradientUnits="userSpaceOnUse"><stop offset="0" stop-color="#fff"/><stop offset="0.1" stop-color="#fff" stop-opacity="0.85"/><stop offset="0.29" stop-color="#fff" stop-opacity="0.59"/><stop offset="0.47" stop-color="#fff" stop-opacity="0.38"/><stop offset="0.63" stop-color="#fff" stop-opacity="0.22"/><stop offset="0.78" stop-color="#fff" stop-opacity="0.1"/><stop offset="0.91" stop-color="#fff" stop-opacity="0.03"/><stop offset="1" stop-color="#fff" stop-opacity="0"/></radialGradient><radialGradient id="radial-gradient-3" cx="1248.51" cy="-1753.58" r="6.66" xlink:href="#radial-gradient-2"/><radialGradient id="Degradado_sin_nombre_34" cx="10.93" cy="51.53" r="4.87" gradientTransform="matrix(0.9, -0.43, 1.26, 2.62, -63.98, -78.88)" xlink:href="#radial-gradient-2"/><radialGradient id="radial-gradient-4" cx="-270.81" cy="73.06" r="9.89" gradientTransform="translate(289.13 148.94) rotate(30)" gradientUnits="userSpaceOnUse"><stop offset="0" stop-color="#d0f2ff"/><stop offset="0.2" stop-color="#d5f3ff"/><stop offset="1" stop-color="#85bcf1"/></radialGradient><radialGradient id="radial-gradient-5" cx="1421.72" cy="-1627.39" r="1.55" gradientTransform="matrix(-1.3, 0.58, -0.75, -1.95, 658.9, -3914.48)" xlink:href="#radial-gradient-2"/><radialGradient id="radial-gradient-6" cx="-255.92" cy="64.46" r="9.89" xlink:href="#radial-gradient-4"/><radialGradient id="radial-gradient-7" cx="1410.45" cy="-1630.74" r="1.55" gradientTransform="matrix(-1.3, 0.58, -0.75, -1.95, 658.9, -3914.48)" xlink:href="#radial-gradient-2"/><radialGradient id="radial-gradient-8" cx="-241.03" cy="55.86" r="9.89" xlink:href="#radial-gradient-4"/><radialGradient id="radial-gradient-9" cx="1399.18" cy="-1634.1" r="1.55" gradientTransform="matrix(-1.3, 0.58, -0.75, -1.95, 658.9, -3914.48)" xlink:href="#radial-gradient-2"/><radialGradient id="radial-gradient-10" cx="-226.14" cy="47.26" r="9.89" xlink:href="#radial-gradient-4"/><radialGradient id="radial-gradient-11" cx="1387.91" cy="-1637.45" r="1.55" gradientTransform="matrix(-1.3, 0.58, -0.75, -1.95, 658.9, -3914.48)" xlink:href="#radial-gradient-2"/><radialGradient id="radial-gradient-12" cx="-256.14" cy="81.27" r="9.89" xlink:href="#radial-gradient-4"/><radialGradient id="radial-gradient-13" cx="1419.71" cy="-1635.41" r="1.55" gradientTransform="matrix(-1.3, 0.58, -0.75, -1.95, 658.9, -3914.48)" xlink:href="#radial-gradient-2"/><radialGradient id="radial-gradient-14" cx="-241.25" cy="72.67" r="9.89" xlink:href="#radial-gradient-4"/><radialGradient id="radial-gradient-15" cx="1408.44" cy="-1638.76" r="1.55" gradientTransform="matrix(-1.3, 0.58, -0.75, -1.95, 658.9, -3914.48)" xlink:href="#radial-gradient-2"/><radialGradient id="radial-gradient-16" cx="-226.36" cy="64.07" r="9.89" xlink:href="#radial-gradient-4"/><radialGradient id="radial-gradient-17" cx="1397.17" cy="-1642.12" r="1.55" gradientTransform="matrix(-1.3, 0.58, -0.75, -1.95, 658.9, -3914.48)" xlink:href="#radial-gradient-2"/></defs><g class="cls-1"><g id="Layer_2" data-name="Layer 2"><g id="OBJECTS"><path class="cls-2" d="M73,25.15a27,27,0,0,0-53.89,0,20.12,20.12,0,0,0,1,40.22H72a20.12,20.12,0,0,0,1-40.22Z"/><path class="cls-3" d="M46.06,27.65c-7.58-6.15-10.54-15.5-6.61-20.9S52.71,2,60.28,8.09,70.81,23.6,66.89,29,53.63,33.79,46.06,27.65Z"/><path class="cls-4" d="M73.14,45.81c-6-4.83-8.28-12.18-5.2-16.42s10.42-3.77,16.38,1.06,8.27,12.18,5.19,16.42S79.09,50.64,73.14,45.81Z"/><path class="cls-5" d="M14.39,46.49C10,39.63,4.89,36.34,3,39.12s.11,10.59,4.5,17.44S17,66.71,18.89,63.93,18.78,53.35,14.39,46.49Z"/><path class="cls-6" d="M23.58,77.73a4.11,4.11,0,1,1-7.12-4.11c1.14-2,8.16-5.9,8.16-5.9S24.72,75.77,23.58,77.73Z"/><path class="cls-7" d="M16.58,77.05c-.64-1.66-.25-3.42.87-3.91s2.53.45,3.17,2.12.25,3.41-.86,3.91S17.22,78.72,16.58,77.05Z"/><path class="cls-8" d="M40.78,77.73a4.11,4.11,0,0,1-7.13-4.11c1.14-2,8.16-5.9,8.16-5.9S41.91,75.77,40.78,77.73Z"/><path class="cls-9" d="M33.77,77.05c-.63-1.66-.25-3.42.87-3.91s2.54.45,3.17,2.12.25,3.41-.86,3.91S34.41,78.72,33.77,77.05Z"/><path class="cls-10" d="M58,77.73a4.11,4.11,0,1,1-7.12-4.11c1.13-2,8.15-5.9,8.15-5.9S59.1,75.77,58,77.73Z"/><path class="cls-11" d="M51,77.05c-.64-1.66-.25-3.42.86-3.91s2.54.45,3.18,2.12.25,3.41-.87,3.91S51.61,78.72,51,77.05Z"/><path class="cls-12" d="M75.16,77.73A4.11,4.11,0,1,1,68,73.62c1.14-2,8.16-5.9,8.16-5.9S76.3,75.77,75.16,77.73Z"/><path class="cls-13" d="M68.16,77.05c-.64-1.66-.25-3.42.87-3.91s2.53.45,3.17,2.12.25,3.41-.87,3.91S68.8,78.72,68.16,77.05Z"/><path class="cls-14" d="M32.18,92.18a4.11,4.11,0,0,1-7.12-4.11c1.13-2,8.15-5.91,8.15-5.91S33.31,90.21,32.18,92.18Z"/><path class="cls-15" d="M25.18,91.5c-.64-1.67-.25-3.42.86-3.92s2.54.46,3.18,2.12.25,3.42-.87,3.91S25.82,93.16,25.18,91.5Z"/><path class="cls-16" d="M49.37,92.18a4.11,4.11,0,0,1-7.12-4.11c1.14-2,8.16-5.91,8.16-5.91S50.51,90.21,49.37,92.18Z"/><path class="cls-17" d="M42.37,91.5c-.64-1.67-.25-3.42.87-3.92s2.53.46,3.17,2.12.25,3.42-.86,3.91S43,93.16,42.37,91.5Z"/><path class="cls-18" d="M66.56,92.18a4.11,4.11,0,0,1-7.12-4.11c1.14-2,8.16-5.91,8.16-5.91S67.7,90.21,66.56,92.18Z"/><path class="cls-19" d="M59.56,91.5c-.63-1.67-.25-3.42.87-3.92S63,88,63.6,89.7s.25,3.42-.86,3.91S60.2,93.16,59.56,91.5Z"/></g></g></g></svg>