<svg xmlns="http://www.w3.org/2000/svg" xmlns:xlink="http://www.w3.org/1999/xlink" viewBox="0 0 92.11 93.73"><defs><style>.cls-1{isolation:isolate;}.cls-2{fill:url(#linear-gradient);}.cls-3{fill:url(#radial-gradient);}.cls-10,.cls-12,.cls-14,.cls-4,.cls-5,.cls-6,.cls-8{mix-blend-mode:overlay;}.cls-4{opacity:0.6;fill:url(#radial-gradient-2);}.cls-5{opacity:0.4;fill:url(#radial-gradient-3);}.cls-6{opacity:0.2;fill:url(#Degradado_sin_nombre_34);}.cls-7{fill:url(#radial-gradient-4);}.cls-8{fill:url(#radial-gradient-5);}.cls-9{fill:url(#radial-gradient-6);}.cls-10{fill:url(#radial-gradient-7);}.cls-11{fill:url(#radial-gradient-8);}.cls-12{fill:url(#radial-gradient-9);}.cls-13{fill:url(#radial-gradient-10);}.cls-14{fill:url(#radial-gradient-11);}</style><linearGradient id="linear-gradient" x1="39.18" y1="92.96" x2="50.71" y2="56.67" gradientUnits="userSpaceOnUse"><stop offset="0.16" stop-color="#ffe036"/><stop offset="1" stop-color="#fa761c"/></linearGradient><radialGradient id="radial-gradient" cx="57.67" cy="13.78" r="70.26" gradientTransform="translate(115.34 23.84) rotate(180) scale(1 0.73)" gradientUnits="userSpaceOnUse"><stop offset="0" stop-color="#b6ccd2"/><stop offset="0.2" stop-color="#97b6be"/><stop offset="1" stop-color="#5d87b4"/></radialGradient><radialGradient id="radial-gradient-2" cx="669.82" cy="-1894.43" r="8.48" gradientTransform="matrix(-0.84, 1.15, -1.62, -1.31, -2449.15, -3241.46)" gradientUnits="userSpaceOnUse"><stop offset="0" stop-color="#fff"/><stop offset="0.1" stop-color="#fff" stop-opacity="0.85"/><stop offset="0.29" stop-color="#fff" stop-opacity="0.59"/><stop offset="0.47" stop-color="#fff" stop-opacity="0.38"/><stop offset="0.63" stop-color="#fff" stop-opacity="0.22"/><stop offset="0.78" stop-color="#fff" stop-opacity="0.1"/><stop offset="0.91" stop-color="#fff" stop-opacity="0.03"/><stop offset="1" stop-color="#fff" stop-opacity="0"/></radialGradient><radialGradient id="radial-gradient-3" cx="670.4" cy="-1909.35" r="6.66" xlink:href="#radial-gradient-2"/><radialGradient id="Degradado_sin_nombre_34" cx="10.94" cy="51.53" r="4.87" gradientTransform="matrix(0.9, -0.43, 1.26, 2.62, -63.98, -78.88)" xlink:href="#radial-gradient-2"/><radialGradient id="radial-gradient-4" cx="-324.72" cy="-126.43" r="9.89" gradientTransform="translate(235.41 349.37) rotate(30)" gradientUnits="userSpaceOnUse"><stop offset="0" stop-color="#d0f2ff"/><stop offset="0.2" stop-color="#d5f3ff"/><stop offset="1" stop-color="#85bcf1"/></radialGradient><radialGradient id="radial-gradient-5" cx="758.69" cy="-1705.81" r="1.55" gradientTransform="matrix(-1.3, 0.58, -0.75, -1.95, -264.54, -3682.22)" xlink:href="#radial-gradient-2"/><radialGradient id="radial-gradient-6" cx="-312.96" cy="-119.31" r="9.89" xlink:href="#radial-gradient-4"/><radialGradient id="radial-gradient-7" cx="757.37" cy="-1712.4" r="1.55" gradientTransform="matrix(-1.3, 0.58, -0.75, -1.95, -264.54, -3682.22)" xlink:href="#radial-gradient-2"/><radialGradient id="radial-gradient-8" cx="-278.8" cy="-152.94" r="9.89" xlink:href="#radial-gradient-4"/><radialGradient id="radial-gradient-9" cx="723.94" cy="-1716.16" r="1.55" gradientTransform="matrix(-1.3, 0.58, -0.75, -1.95, -264.54, -3682.22)" xlink:href="#radial-gradient-2"/><radialGradient id="radial-gradient-10" cx="-282.66" cy="-136.8" r="9.89" xlink:href="#radial-gradient-4"/><radialGradient id="radial-gradient-11" cx="734.45" cy="-1719.22" r="1.55" gradientTransform="matrix(-1.3, 0.58, -0.75, -1.95, -264.54, -3682.22)" xlink:href="#radial-gradient-2"/></defs><g class="cls-1"><g id="Layer_2" data-name="Layer 2"><g id="OBJECTS"><path class="cls-2" d="M52.47,70.55H48.11l7.19-14a8,8,0,1,0-15-5.35L35.5,73.81l-.14.69a4.62,4.62,0,0,0-.1,1,4.87,4.87,0,0,0,4.86,4.87h5.32l-2.87,12A1.14,1.14,0,0,0,43,93.51a1.13,1.13,0,0,0,1.58-.25L56,77.51a4.44,4.44,0,0,0,.84-2.58A4.39,4.39,0,0,0,52.47,70.55Z"/><path class="cls-3" d="M73,25.15a27,27,0,0,0-53.89,0,20.12,20.12,0,0,0,1,40.22H72a20.12,20.12,0,0,0,1-40.22Z"/><path class="cls-4" d="M48,27.65c-7.58-6.15-10.54-15.5-6.61-20.9S54.6,2,62.18,8.09,72.7,23.6,68.78,29,55.52,33.79,48,27.65Z"/><path class="cls-5" d="M73.14,45.81C67.18,41,64.86,33.63,68,29.39s10.41-3.77,16.37,1.06,8.27,12.18,5.19,16.42S79.09,50.64,73.14,45.81Z"/><path class="cls-6" d="M14.39,46.49C10,39.63,4.89,36.34,3,39.12s.11,10.59,4.5,17.44S17,66.71,18.89,63.93,18.78,53.35,14.39,46.49Z"/><path class="cls-7" d="M22.92,78.46a4.11,4.11,0,0,1-7.12-4.11c1.14-2,8.16-5.91,8.16-5.91S24.06,76.49,22.92,78.46Z"/><path class="cls-8" d="M15.92,77.78c-.63-1.67-.25-3.42.87-3.92S19.32,74.31,20,76s.25,3.42-.86,3.91S16.56,79.44,15.92,77.78Z"/><path class="cls-9" d="M29.55,90.5a4.11,4.11,0,1,1-7.12-4.11c1.14-2,8.16-5.9,8.16-5.9S30.69,88.54,29.55,90.5Z"/><path class="cls-10" d="M22.55,89.82c-.64-1.66-.25-3.42.87-3.91S26,86.36,26.59,88s.25,3.41-.86,3.91S23.19,91.49,22.55,89.82Z"/><path class="cls-11" d="M76,78.46a4.11,4.11,0,0,1-7.12-4.11C70,72.38,77,68.44,77,68.44S77.08,76.49,76,78.46Z"/><path class="cls-12" d="M69,77.78c-.64-1.67-.26-3.42.86-3.92S72.35,74.31,73,76s.25,3.42-.87,3.91S69.58,79.44,69,77.78Z"/><path class="cls-13" d="M64.53,90.5a4.11,4.11,0,1,1-7.12-4.11c1.13-2,8.15-5.9,8.15-5.9S65.66,88.54,64.53,90.5Z"/><path class="cls-14" d="M57.53,89.82c-.64-1.66-.25-3.42.86-3.91s2.54.45,3.18,2.12.25,3.41-.87,3.91S58.17,91.49,57.53,89.82Z"/></g></g></g></svg>